<svg width="250" height="520" viewBox="0 0 250 520" fill="none" xmlns="http://www.w3.org/2000/svg">
  <g opacity=".16" stroke="#6B8273" stroke-width="2">
    <path d="M39 520C61 386 80 271 112 129"/>
    <path d="M71 520C84 390 127 264 151 94"/>
    <path d="M101 370C70 331 35 316 9 314"/>
    <path d="M117 281C151 241 174 219 203 198"/>
    <path d="M123 237C99 207 76 192 53 185"/>
  </g>
  <g fill="#7C9181" opacity=".16">
    <path d="M18 303C37 288 59 287 84 303C57 310 38 312 18 303Z"/>
    <path d="M47 323C64 308 85 310 101 330C78 334 62 332 47 323Z"/>
    <path d="M57 175C76 159 97 160 115 181C90 185 73 182 57 175Z"/>
    <path d="M83 201C100 187 119 191 133 211C110 213 96 208 83 201Z"/>
    <path d="M151 206C165 183 186 174 212 178C194 198 175 207 151 206Z"/>
    <path d="M165 228C183 206 207 202 230 210C208 228 187 234 165 228Z"/>
    <path d="M126 109C140 86 159 78 182 82C166 103 149 112 126 109Z"/>
  </g>
</svg>
